<svg version="1.0" xmlns="http://www.w3.org/2000/svg" width="400" height="73.333" viewBox="0 0 300 55"><path d="M77.1 27.5c.2 12.9.6 23.5 1.1 23.5.4 0 .8-10.6.8-23.5C79 11.4 78.7 4 77.9 4c-.7 0-1 7.3-.8 23.5zM1 21.7c.5 15.7 1.1 17.8 5.7 21.1 9.5 6.7 21.6.2 21.6-11.5 0-5.2-2.4-9-7.4-11.5-4.7-2.5-9-2.2-13.3.7L4 22.9V15c0-7-.2-8-1.7-8C.6 7 .5 8.2 1 21.7zm17.4.7C29 26.8 26.3 42 15 42 9 42 5 37.9 5 31.8c0-3.5.6-5 2.7-7 1.6-1.4 3.7-2.8 4.8-3.1 1.1-.3 2.1-.5 2.3-.6.1 0 1.8.5 3.6 1.3zM36 20.7c0 11.2.3 14.5 1.8 17.2 6.5 12.9 25.5 8.6 25.5-5.8 0-11-13-17.8-21.5-11.2l-2.3 1.9.4-7.9c.3-7.5.2-7.9-1.8-7.9S36 7.4 36 20.7zm21.1 4.2c6.5 6.6 2 17.1-7.3 17.1s-13.5-10.5-6.9-17.1c4.1-4.1 10.1-4.1 14.2 0zM177.7 18.7c-.7 1.5-.2 3.6 1.1 4 .7.3 1.2-.5 1.2-2.1 0-2.4-1.4-3.6-2.3-1.9zM262.7 18.7c-.4.3-.7 5.3-.7 11 0 8.5.3 10.3 1.5 10.3 1 0 1.5-1 1.5-2.9 0-3.6 1.9-5.1 3.3-2.5 1.6 2.8 5.7 6.7 6.4 6 .4-.3-.8-2.7-2.7-5.2l-3.2-4.6 3.3-3.5c3.1-3.2 3.2-3.5 1-2.8-1.2.4-3.6 2.1-5.2 3.9l-2.8 3.1-.1-6.8c0-6.2-.6-7.8-2.3-6zM94 29.5V40h6.4c4.5 0 6.9-.5 8-1.6 2.3-2.2 2-7-.4-8.7-1.8-1.2-1.8-1.5-.5-2 2.2-.9 2-6.4-.4-7.7-1.1-.5-4.5-1-7.5-1H94v10.5zm11.4-6.9c.9.8 1.6 1.7 1.6 1.9 0 1.5-3.8 3.5-6.6 3.5-3.2 0-3.4-.2-3.4-3.5s.2-3.5 3.4-3.5c1.9 0 4.2.7 5 1.6zm-.3 8.4c2.3 1.3 2.5 5.5.3 6.4-.9.3-3.1.6-5 .6-3.3 0-3.4-.1-3.4-4 0-3.8.2-4 3.1-4 1.7 0 3.9.5 5 1zM209 29.5V40h6.5c5.2 0 6.9-.4 8.5-2 2.5-2.5 2.5-5.2 0-7.5-1.9-1.7-1.9-1.9-.3-3.7 1.6-1.8 1.6-2.2.2-4.6-1.3-2.5-2.1-2.7-8.2-3l-6.7-.3v10.6zm12.1-6.9c2.1 2.5-.1 4.9-5 5.2-4.1.3-4.1.3-4.1-3.2s.1-3.6 3.9-3.6c2.3 0 4.4.6 5.2 1.6zm.3 9c3.4 3.4.7 6.4-5.8 6.4-3.5 0-3.6-.1-3.6-4 0-4 0-4 3.9-4 2.3 0 4.6.7 5.5 1.6zM114 31.7c0 6.6.3 8.3 1.5 8.3 1 0 1.5-1.6 1.7-6.3.3-5.7.5-6.2 2.6-6.1 1.5 0 2.2-.4 2-1.4-.4-2.1-2.4-2.6-3.9-.9-1.2 1.2-1.5 1.2-2.6-.2-1-1.3-1.2-.1-1.3 6.6zM127.2 25c-4.7 1.9-5.3 11.4-.9 14.5 2.9 2 6 1.9 8.8-.4 3.4-2.8 3.4-10.4 0-13.2-2.5-2.1-4.4-2.3-7.9-.9zm7.3 7.5c0 5-3 7.3-6.3 4.9-5.1-3.5-.9-13.4 4.3-10 1.4 1 2 2.4 2 5.1zM139.3 25.7c3.2 11.4 4.3 14.3 5.8 14.3 1.1 0 2-1.7 2.9-5.7 1.3-6.2 2.3-5.8 3.5 1.4.5 3.2 1.1 4.3 2.4 4.3 1.4 0 2.3-1.9 4-7.6 1.2-4.2 2-7.8 1.7-8.1-1.1-1.1-2.3.9-3.6 6.1-1.2 5.1-3 6.7-3 2.8 0-.9-.5-3.4-1-5.4-1.5-5.1-3.6-4-5.1 2.8-1.1 5.1-2.9 7.4-2.9 3.8 0-3.3-2.3-9.3-3.8-9.9-1-.4-1.3 0-.9 1.2zM167.1 24.9c-.7.5-2.2.6-3.2.4-1.7-.5-1.9.1-1.9 7.1 0 6.1.3 7.6 1.5 7.6 1.1 0 1.5-1.3 1.5-5.3 0-6.3 1-8 4.1-7.5 2.2.3 2.4.8 2.7 6.5.2 4.7.7 6.3 1.7 6.3 2.4 0 2.1-12.2-.3-14.3-2-1.9-4-2.1-6.1-.8zM185 25.8c-3.2 2.6-1.9 5.7 2.8 7.3 5.1 1.6 6.1 2.7 3.9 4.4-2 1.5-4.7.9-6-1.2-1.1-1.8-2.7-1.7-2.7.2 0 .8 1.1 2.2 2.5 3.1 3.3 2.1 8.3 1 9.7-2.2 1.4-3.1-.2-5-5.3-6.4-3.9-1.1-5.2-3.3-2.4-4.4 1.8-.6 4.5.2 4.5 1.5 0 .5.7.9 1.5.9 2.2 0 1.8-1.7-.7-3.4-2.9-2.1-5.1-2-7.8.2zM232.2 25c-4.9 2-5.3 11.6-.6 14.6 5.6 3.7 12.3-1.9 11-9.2-1-5.3-5.2-7.4-10.4-5.4zm7.3 7.5c0 5-3 7.3-6.3 4.9-2.8-2-2.9-6.7-.1-9.5 1.8-1.8 2.3-1.9 4.2-.6 1.6 1.1 2.2 2.5 2.2 5.2zM247.5 26.5c-1.7 1.6-2.5 3.5-2.5 6s.8 4.4 2.5 6c3 3 5.4 3.1 8.9.4 2.1-1.6 2.6-2.9 2.6-6.4 0-3.5-.5-4.8-2.6-6.4-3.5-2.7-5.9-2.6-8.9.4zm8.5 2.4c3.2 6-3.5 13.1-7.2 7.7-.9-1.3-1-5.9-.2-8 .9-2.3 6.1-2.1 7.4.3zM279.2 25.6c-4.1 2.9-2.5 6.6 3.5 7.9 4.1.8 5.1 2.4 2.9 4.1-2 1.4-4.5.8-6.3-1.5-1.4-1.9-2.8-.9-2 1.4 1.1 2.7 5.2 3.9 8.6 2.5 5.7-2.3 4.7-7.2-1.9-9-4.6-1.2-5.7-2.5-3.4-3.8 1.9-1 5.4-.4 5.4.9 0 .5.7.9 1.5.9s1.5-.4 1.5-.9c0-1.3-4.1-4.1-6-4.1-.9 0-2.6.7-3.8 1.6z"/></svg>